{
  "source": "C:\\Users\\Peter\\Desktop\\stuff\\MIUN\\quantitative_research\\video_compression\\videos\\HEVC_CLASS_B\\ParkScene_1920x1080_24.y4m",
  "output": "C:\\Users\\Peter\\Desktop\\stuff\\MIUN\\quantitative_research\\video_compression\\compressed_videos\\HEVC_CLASS_B\\h264\\2.5\\ParkScene_1920x1080_24_h264.mp4",
  "codec": "h264",
  "ok": "Input #0, yuv4mpegpipe, from 'C:\\Users\\Peter\\Desktop\\stuff\\MIUN\\quantitative_research\\video_compression\\videos\\HEVC_CLASS_B\\ParkScene_1920x1080_24.y4m':\n  Duration: 00:00:10.00, start: 0.000000, bitrate: 597198 kb/s\n  Stream #0:0: Video: rawvideo (I420 / 0x30323449), yuv420p(progressive), 1920x1080, 24 fps, 24 tbr, 24 tbn\n[out#0/mp4 @ 000001753f379a40] Codec AVOption b:a (set bitrate (in bits/s)) has not been used for any stream. The most likely reason is either wrong type (e.g. a video option with no video streams) or that it is a private option of some decoder which was not actually used for any stream.\nStream mapping:\n  Stream #0:0 -> #0:0 (rawvideo (native) -> h264 (libx264))\nPress [q] to stop, [?] for help\n[libx264 @ 000001753f37cac0] using cpu capabilities: MMX2 SSE2Fast SSSE3 SSE4.2 AVX FMA3 BMI2 AVX2\n[libx264 @ 000001753f37cac0] profile High, level 5.0, 4:2:0, 8-bit\n[libx264 @ 000001753f37cac0] 264 - core 165 r3222 b35605a - H.264/MPEG-4 AVC codec - Copyleft 2003-2025 - http://www.videolan.org/x264.html - options: cabac=1 ref=5 deblock=1:0:0 analyse=0x3:0x113 me=hex subme=8 psy=1 psy_rd=1.00:0.00 mixed_ref=1 me_range=16 chroma_me=1 trellis=2 8x8dct=1 cqm=0 deadzone=21,11 fast_pskip=1 chroma_qp_offset=-2 threads=18 lookahead_threads=3 sliced_threads=0 nr=0 decimate=1 interlaced=0 bluray_compat=0 constrained_intra=0 bframes=3 b_pyramid=2 b_adapt=1 b_bias=0 direct=3 weightb=1 open_gop=0 weightp=2 keyint=250 keyint_min=24 scenecut=40 intra_refresh=0 rc_lookahead=50 rc=cbr mbtree=1 bitrate=2500 ratetol=1.0 qcomp=0.60 qpmin=0 qpmax=69 qpstep=4 vbv_maxrate=2500 vbv_bufsize=2500 nal_hrd=none filler=0 ip_ratio=1.40 aq=1:1.00\nOutput #0, mp4, to 'C:\\Users\\Peter\\Desktop\\stuff\\MIUN\\quantitative_research\\video_compression\\compressed_videos\\HEVC_CLASS_B\\h264\\2.5\\ParkScene_1920x1080_24_h264.mp4':\n  Metadata:\n    encoder         : Lavf62.3.100\n  Stream #0:0: Video: h264 (avc1 / 0x31637661), yuv420p(tv, progressive), 1920x1080, q=2-31, 2500 kb/s, 24 fps, 12288 tbn\n    Metadata:\n      encoder         : Lavc62.11.100 libx264\n    Side data:\n      cpb: bitrate max/min/avg: 2500000/0/2500000 buffer size: 2500000 vbv_delay: N/A\nframe=    0 fps=0.0 q=0.0 size=       0KiB time=N/A bitrate=N/A speed=N/A elapsed=0:00:00.51    \nframe=   16 fps= 15 q=35.0 size=       0KiB time=00:00:00.58 bitrate=   0.7kbits/s speed=0.563x elapsed=0:00:01.03    \nframe=   46 fps= 29 q=35.0 size=     256KiB time=00:00:01.83 bitrate=1144.1kbits/s speed=1.14x elapsed=0:00:01.61    \nframe=   69 fps= 32 q=35.0 size=     512KiB time=00:00:02.79 bitrate=1502.6kbits/s speed=1.29x elapsed=0:00:02.15    \nframe=   95 fps= 35 q=35.0 size=     768KiB time=00:00:03.79 bitrate=1659.4kbits/s speed=1.41x elapsed=0:00:02.69    \nframe=  125 fps= 39 q=35.0 size=    1024KiB time=00:00:05.04 bitrate=1663.9kbits/s speed=1.56x elapsed=0:00:03.22    \nframe=  146 fps= 39 q=35.0 size=    1280KiB time=00:00:06.00 bitrate=1747.7kbits/s speed=1.58x elapsed=0:00:03.78    \nframe=  173 fps= 40 q=34.0 size=    1536KiB time=00:00:07.12 bitrate=1766.1kbits/s speed=1.66x elapsed=0:00:04.30    \nframe=  197 fps= 41 q=34.0 size=    1792KiB time=00:00:07.95 bitrate=1844.7kbits/s speed=1.65x elapsed=0:00:04.82    \nframe=  229 fps= 43 q=-1.0 size=    2048KiB time=00:00:09.45 bitrate=1773.8kbits/s speed=1.76x elapsed=0:00:05.38    \n[mp4 @ 000001753f379b40] Starting second pass: moving the moov atom to the beginning of the file\n[out#0/mp4 @ 000001753f379a40] video:2289KiB audio:0KiB subtitle:0KiB other streams:0KiB global headers:0KiB muxing overhead: 0.160585%\nframe=  240 fps= 43 q=-1.0 Lsize=    2293KiB time=00:00:09.91 bitrate=1893.9kbits/s speed=1.78x elapsed=0:00:05.56    \n[libx264 @ 000001753f37cac0] frame I:1     Avg QP:32.37  size: 94554\n[libx264 @ 000001753f37cac0] frame P:60    Avg QP:32.86  size: 24727\n[libx264 @ 000001753f37cac0] frame B:179   Avg QP:39.03  size:  4274\n[libx264 @ 000001753f37cac0] consecutive B-frames:  0.4%  0.0%  1.2% 98.3%\n[libx264 @ 000001753f37cac0] mb I  I16..4: 22.4% 66.1% 11.5%\n[libx264 @ 000001753f37cac0] mb P  I16..4:  0.3%  1.2%  0.2%  P16..4: 37.8% 11.5%  6.9%  0.0%  0.0%    skip:42.1%\n[libx264 @ 000001753f37cac0] mb B  I16..4:  0.0%  0.0%  0.0%  B16..8: 44.0%  1.4%  0.2%  direct: 0.4%  skip:53.9%  L0:40.2% L1:59.0% BI: 0.8%\n[libx264 @ 000001753f37cac0] 8x8 transform intra:70.6% inter:59.5%\n[libx264 @ 000001753f37cac0] direct mvs  spatial:94.4% temporal:5.6%\n[libx264 @ 000001753f37cac0] coded y,uvDC,uvAC intra: 62.4% 48.6% 22.0% inter: 5.1% 3.7% 0.3%\n[libx264 @ 000001753f37cac0] i16 v,h,dc,p: 33% 21%  4% 43%\n[libx264 @ 000001753f37cac0] i8 v,h,dc,ddl,ddr,vr,hd,vl,hu: 10%  6%  3% 11% 16% 16% 14% 12% 11%\n[libx264 @ 000001753f37cac0] i4 v,h,dc,ddl,ddr,vr,hd,vl,hu: 10%  6%  4% 11% 15% 14% 14% 11% 15%\n[libx264 @ 000001753f37cac0] i8c dc,h,v,p: 42% 27% 18% 13%\n[libx264 @ 000001753f37cac0] Weighted P-Frames: Y:0.0% UV:0.0%\n[libx264 @ 000001753f37cac0] ref P L0: 63.8% 16.1% 13.9%  3.1%  3.1%\n[libx264 @ 000001753f37cac0] ref B L0: 93.6%  5.0%  1.2%  0.2%\n[libx264 @ 000001753f37cac0] ref B L1: 97.8%  2.2%\n[libx264 @ 000001753f37cac0] kb/s:1874.53\n",
  "seconds": 5.682965993881226,
  "probe_out": {}
}